<svg viewBox="346.7625000000003 371.1538461538462 3269.475000000001 2919.7435897435903" xmlns="http://www.w3.org/2000/svg" xmlns:xlink="http://www.w3.org/1999/xlink" xmlns:blush="http://design.blush" overflow="visible" width="3269.475000000001px" height="2919.7435897435903px"><defs><polygon id="masterspot-illustrationstats-and-graphs-path-1" points="-1.8189894e-12 115.06 382.454938 115.06 382.454938 354.503 -1.8189894e-12 354.503"/><polygon id="masterspot-illustrationstats-and-graphs-path-3" points="0 0.1617 396.768949 0.1617 396.768949 222.999651 0 222.999651"/><polygon id="masterspot-illustrationstats-and-graphs-path-5" points="0.1808 0.1553 298.703924 0.1553 298.703924 343 0.1808 343"/><polygon id="masterspot-illustrationstats-and-graphs-path-7" points="0.550418291 0.388 141.311628 0.388 141.311628 92.088834 0.550418291 92.088834"/></defs><g id="Master/Spot Illustration/Stats and Graphs" stroke="none" stroke-width="1" fill="none" fill-rule="evenodd" blush:viewBox="376.4850000000001 374.50718685831635 3210.0300000000007 2893.018480492812" blush:i="0"><g id="Graph-1" transform="translate(1642.000000, 1544.000000)" blush:i="0.0"><rect id="Rectangle" fill="#EECCDC" opacity=".331" x="0" y="0" width="1869" height="1428" rx="234" blush:i="0.0.0"/><path d="M1773.03928,131.513799 C1776.06923,123.803508 1784.77591,120.009339 1792.4862,123.039284 C1800.19649,126.069229 1803.99066,134.775911 1800.96072,142.486201 L1797.07521,152.357311 C1733.82484,312.777181 1681.00443,433.593487 1638.52723,514.942484 C1592.27512,603.520876 1558.59887,646.666125 1528.70506,646.666125 C1509.33386,646.666125 1496.56491,634.901106 1489.73743,615.309521 L1489.35098,614.180894 C1485.38576,602.38897 1483.6144,590.331706 1481.24379,564.950161 L1479.89506,550.465465 C1479.7854,549.342976 1479.67998,548.29518 1479.54907,547.010103 L1479.36209,545.204368 C1476.28303,515.95394 1471.96153,498.583439 1463.88406,487.332873 C1454.75877,474.622871 1440.10627,470.636683 1413.70266,477.659144 C1390.44387,483.845194 1358.77853,515.014785 1317.55031,571.444681 L1315.13147,574.768989 C1297.98988,598.419087 1279.4206,625.931935 1255.86749,662.223636 L1250.58696,670.391426 C1234.63876,695.133471 1197.81846,752.666838 1189.24065,765.942662 L1185.51415,771.702389 C1125.00758,865.093936 1081.99786,925.115587 1038.38469,973.223527 C977.137855,1040.78245 921.960726,1074.37711 868.84219,1068.3245 C823.259239,1063.13054 787.572291,1044.41369 758.392724,1013.15876 C746.16914,1000.06579 735.165944,984.905541 724.431878,966.94668 L723.631958,965.602916 C715.923452,952.60076 708.877224,939.176012 699.418682,919.943002 L688.095213,896.73544 C679.145559,878.462447 673.201787,866.969246 666.787179,855.892993 L665.613185,853.879343 C656.438871,838.247202 647.431713,825.720773 637.751562,815.508524 C615.861513,792.415225 590.080864,780.841883 555.393532,780.841883 C503.598424,780.841883 439.808228,826.375261 365.661308,919.005153 C289.699359,1013.90252 203.884683,1156.8553 108.415232,1347.71056 C104.709094,1355.11958 95.6984724,1358.12137 88.2894444,1354.41523 C80.8804165,1350.70909 77.8786307,1341.69847 81.5847682,1334.28944 C276.219114,945.191278 431.788863,750.841883 555.393532,750.841883 C598.494211,750.841883 632.083156,765.920492 659.524406,794.870131 C670.94488,806.918365 681.240862,821.237187 691.486434,838.694646 L692.426293,840.303832 C699.180797,851.925178 705.266228,863.632771 714.186128,881.803792 L724.875905,903.72097 L726.794429,907.625503 C747.271145,949.138082 761.374003,972.391013 780.321478,992.686105 C804.74436,1018.84604 833.927996,1034.15207 872.238569,1038.51738 C913.106528,1043.17409 960.804138,1014.13334 1016.15861,953.07405 C1058.82679,906.008496 1101.54057,846.2686 1162.19914,752.513251 L1167.40151,744.448107 C1181.25199,722.911656 1219.01278,663.915916 1229.89265,647.140255 L1233.96698,640.869089 C1256.78089,605.818059 1275.00435,578.92981 1292.03808,555.514349 C1337.96358,492.382708 1373.36872,457.343662 1405.99175,448.667045 C1443.65159,438.650807 1471.25504,446.160275 1488.25363,469.836471 C1495.10795,479.383399 1499.91026,491.103731 1503.35048,505.282774 C1505.90258,515.801388 1507.62689,527.1094 1509.18334,541.927123 L1509.9062,549.135809 L1511.29952,564.129301 C1513.40825,586.314967 1515.01121,596.66995 1518.06649,605.437113 L1518.35795,606.256437 C1521.26691,614.26179 1524.02731,616.666125 1528.70506,616.666125 C1529.21753,616.666125 1530.06761,616.472825 1531.28848,615.94902 C1533.05127,615.192702 1535.16201,613.907057 1537.56219,612.056888 C1543.12234,607.770864 1549.65718,600.912156 1556.98798,591.520105 L1557.91747,590.321264 C1573.15672,570.535757 1591.21673,540.733325 1611.93428,501.056704 C1654.6885,419.177176 1708.4209,295.947951 1773.03928,131.513799 Z" id="Path-8" fill="#56ACF6" fill-rule="nonzero" blush:i="0.0.1"/><path d="M1774.63616,570.506738 C1779.32686,563.678379 1788.6649,561.945462 1795.49326,566.636162 C1802.32162,571.326861 1804.05454,580.664902 1799.36384,587.493262 C1635.99098,825.318921 1511.29222,930.060431 1419.53083,897.596993 C1401.35166,891.165548 1381.6268,880.489639 1357.42218,864.662845 L1355.00363,863.074249 C1346.80046,857.662664 1338.15566,851.726173 1327.68969,844.356401 L1322.07571,840.389043 C1315.21438,835.517974 1294.73094,820.900852 1289.04875,816.880743 L1284.8722,813.932982 C1256.3562,793.857237 1235.43215,780.203237 1214.48707,768.512349 L1213.72999,768.090634 C1186.41855,752.90825 1161.75669,742.873486 1138.57131,738.066161 C1108.52262,731.835781 1081.19206,734.474902 1055.4553,747.037477 C1026.70092,761.073005 999.566145,787.699412 974.016149,828.778338 L973.242392,830.02758 C910.070244,932.445558 832.123655,986.187054 740.352256,1000.2225 C701.786535,1006.12071 661.50759,1004.93543 618.183759,997.757399 L615.756549,997.349926 C583.005107,991.779795 550.818395,983.391599 509.570678,970.556331 L504.055852,968.827008 C491.505048,964.864469 465.743562,956.618396 461.349467,955.235452 C379.259109,929.399327 260.019747,993.40668 105.701058,1150.5113 C99.8958291,1156.42133 90.3987344,1156.50629 84.4887033,1150.70106 C78.5786722,1144.89583 78.4937132,1135.39873 84.298942,1129.4887 C244.285413,966.613984 371.333883,897.644779 467.452559,925.738232 L470.35578,926.619262 C475.401636,928.207333 507.26869,938.411025 516.977659,941.441575 L521.367234,942.805467 C560.549666,954.922485 591.101088,962.792371 621.944895,967.970327 L623.087409,968.160875 C663.479985,974.85325 700.642664,975.946827 735.816816,970.56732 C817.848706,958.021425 887.645491,910.339062 945.945714,817.117174 L947.708869,814.278319 C1002.83577,724.903714 1068.43174,692.885142 1144.66205,708.690952 C1171.1721,714.187622 1198.54456,725.325316 1228.30615,741.869732 L1229.89877,742.758629 C1251.65692,754.951258 1273.15953,768.999052 1302.08818,789.364386 L1313.11925,797.181733 C1322.3552,803.755388 1336.54958,813.880498 1340.55266,816.714144 L1345.78073,820.403681 C1356.20767,827.73778 1364.74176,833.582197 1372.83127,838.893057 L1374.75071,840.148314 C1396.69646,854.443501 1414.25178,863.907283 1429.53655,869.314745 C1502.23623,895.03451 1619.18168,796.80544 1774.63616,570.506738 Z" id="Path-10" fill="#E93737" fill-rule="nonzero" blush:i="0.0.2"/></g><g id="Group-3" transform="translate(2161.000000, 868.500000) scale(-1, 1) translate(-2161.000000, -868.500000) translate(1689.000000, 308.000000)" blush:i="0.1"><g id="Group" transform="translate(220.368921, 0.000000)" blush:i="0.1.0"><path d="M361.236678,78.0693816 C518.169345,78.0693816 645.388408,205.097653 645.388408,361.794966 C645.388408,518.49228 518.169345,645.520551 361.236678,645.520551 C204.304011,645.520551 77.0849482,518.49228 77.0849482,361.794966 C77.0849482,205.097653 204.304011,78.0693816 361.236678,78.0693816 Z M361.236678,208.087319 C276.079417,208.087319 207.045817,276.904577 207.045817,361.794966 C207.045817,446.685356 276.079417,515.502613 361.236678,515.502613 C446.393939,515.502613 515.427539,446.685356 515.427539,361.794966 C515.427539,276.904577 446.393939,208.087319 361.236678,208.087319 Z" id="Combined-Shape-Copy-4" fill="#EECCDC" transform="translate(361.236678, 361.794966) rotate(-109.000000) translate(-361.236678, -361.794966)" blush:i="0.1.0.0"/><path d="M268.119773,327.393064 L143.873559,365.853685 C130.165816,321.715575 97.1640427,286.070465 54.729607,268.778985 L103.78733,147.943835 C182.060237,179.9025 242.913339,245.804034 268.119773,327.393064 Z" id="Combined-Shape-Copy-5" fill="#EA4343" transform="translate(161.424690, 256.899259) rotate(-109.000000) translate(-161.424690, -256.899259)" blush:i="0.1.0.1"/><path d="M615.756357,494.540292 L520.705089,583.526955 C489.780592,550.360388 466.674704,509.778609 454.331758,464.732441 L579.569558,429.773637 C586.255973,454.3458 598.860499,476.47725 615.756357,494.540292 Z" id="Combined-Shape-Copy-6" fill="#56ACF6" transform="translate(535.044057, 506.650296) rotate(-109.000000) translate(-535.044057, -506.650296)" blush:i="0.1.0.2"/></g><g id="Group-Copy" transform="translate(0.000000, 678.041958)" blush:i="0.1.1"><path d="M220.320822,47.6621418 C316.035173,47.6621418 393.626985,125.214177 393.626985,220.879462 C393.626985,316.544746 316.035173,394.096781 220.320822,394.096781 C124.606471,394.096781 47.0146588,316.544746 47.0146588,220.879462 C47.0146588,125.214177 124.606471,47.6621418 220.320822,47.6621418 Z M220.320822,127.039399 C168.382802,127.039399 126.278718,169.053026 126.278718,220.879462 C126.278718,272.705897 168.382802,314.719524 220.320822,314.719524 C272.258842,314.719524 314.362926,272.705897 314.362926,220.879462 C314.362926,169.053026 272.258842,127.039399 220.320822,127.039399 Z" id="Combined-Shape-Copy-4" fill="#EECCDC" transform="translate(220.320822, 220.879462) rotate(-109.000000) translate(-220.320822, -220.879462)" blush:i="0.1.1.0"/><path d="M163.528326,199.877828 L87.7497499,223.358663 C79.3893352,196.411483 59.2610062,174.649466 33.3795198,164.092861 L63.3007446,90.3220208 C111.040018,109.833145 148.154794,150.066794 163.528326,199.877828 Z" id="Combined-Shape-Copy-5" fill="#204EB2" transform="translate(98.453821, 156.840016) rotate(-109.000000) translate(-98.453821, -156.840016)" blush:i="0.1.1.1"/><path d="M375.553729,301.922313 L317.581319,356.249601 C298.720301,336.001106 284.627891,311.225569 277.09985,283.724488 L353.483056,262.380978 C357.561078,277.38278 365.24871,290.894479 375.553729,301.922313 Z" id="Combined-Shape-Copy-6" fill="#EA4343" transform="translate(326.326789, 309.315290) rotate(-109.000000) translate(-326.326789, -309.315290)" blush:i="0.1.1.2"/></g></g><g id="Group-2" transform="translate(3094.000000, 867.000000) scale(-1, 1) translate(-3094.000000, -867.000000) translate(2678.000000, 453.000000)" blush:i="0.2"><path d="M416,0 C645.750456,0 832,185.354114 832,414 C832,642.645886 645.750456,828 416,828 C186.249544,828 0,642.645886 0,414 C0,185.354114 186.249544,0 416,0 Z M416,189.716505 C291.32921,189.716505 190.263566,290.131646 190.263566,414 C190.263566,537.868354 291.32921,638.283495 416,638.283495 C540.67079,638.283495 641.736434,537.868354 641.736434,414 C641.736434,290.131646 540.67079,189.716505 416,189.716505 Z" id="Combined-Shape-Copy-4" fill="#EECCDC" blush:i="0.2.0"/><path d="M811.871162,290.777863 L630.210052,346.864745 C610.167928,282.498617 561.915182,230.517772 499.870652,205.302133 L571.59946,29.0921949 C686.042885,75.6966196 775.016667,171.798936 811.871162,290.777863 Z" id="Combined-Shape-Copy-5" fill="#EA4343" blush:i="0.2.1"/><path d="M250.494198,566.449213 L110.898147,695.96689 C65.4810612,647.693982 31.5467463,588.628467 13.419391,523.065179 L197.349218,472.183911 C207.16909,507.947678 225.680454,540.159115 250.494198,566.449213 Z" id="Combined-Shape-Copy-6" fill="#56ACF6" blush:i="0.2.2"/></g><ellipse id="Floor" fill="#D5ECFF" opacity=".5" cx="1982" cy="3206" rx="1602" ry="58" blush:i="0.3"/><g transform="translate(-100.000000, 498.000000) scale(1 1)" blush:has-customizable-colors="true" blush:width="2330" blush:height="2708" id="Master/Character/Standing" blush:component="Master/Character/Standing" blush:i="0.4" blush:value="Standing" blush:viewBox="623.1395348837209 243.72000000000025 1056.6279069767443 2464.2799999999993"><defs blush:i="0.4.0"><polygon id="mastercharacterstanding-path-1" points="0.0001 0.000131119082 485.023 0.000131119082 485.023 527.3 0.0001 527.3" blush:i="0.4.0.0"/></defs><g id="Master/Character/Standing" stroke="none" stroke-width="1" fill="none" fill-rule="evenodd" blush:has-customizable-colors="true" blush:viewBox="623.1395348837209 243.72000000000025 1056.6279069767443 2464.2799999999993" blush:i="0.4.1"><g id="Lower Body/Standing" transform="translate(503.000000, 1151.000000) scale(1 1)" blush:width="1383" blush:height="1557" blush:component="Lower Body/Standing" blush:i="0.4.1.0" blush:value="Chill Stance" blush:viewBox="418.94932432432415 0 677.4831081081085 1556.9999999999995"><defs blush:i="0.4.1.0.0"><polygon id="lower-bodystandingchill-stance-path-1" points="0.468544226 0.286 53.515 0.286 53.515 107.756 0.468544226 107.756" blush:i="0.4.1.0.0.0"/></defs><g id="Lower Body/Standing/Chill Stance" stroke="none" stroke-width="1" fill="none" fill-rule="evenodd" blush:viewBox="418.94932432432415 0 677.4831081081085 1556.9999999999995" blush:i="0.4.1.0.1"><g id="Group-22" transform="translate(422.000000, -1.000000)" blush:i="0.4.1.0.1.0"><polygon id="Fill-1" fill="#7d4439" points="206.6874 1313.0332 196.9454 1386.7082 257.2254 1398.8862 284.0164 1324.6012" blush:color="Skin-500" blush:i="0.4.1.0.1.0.0"/><polygon id="Fill-2" fill="#7d4439" points="565.3222 1118.7978 607.2572 1118.5278 530.0072 1233.8778 494.6912 1193.6918" blush:color="Skin-500" blush:i="0.4.1.0.1.0.1"/><g id="Group-21" transform="translate(0.000000, 0.420000)" blush:i="0.4.1.0.1.0.2"><g id="Group-5" fill="#204EB2" blush:i="0.4.1.0.1.0.2.0"><path d="M449.2298,1227.9879 C445.2498,1227.9879 433.4398,1214.6279 416.2498,1191.8879 L392.6098,1327.8169 C240.6498,1350.7879 177.0498,1306.6179 177.0498,1306.6179 L221.7198,902.8679 C153.3198,796.2079 91.4709165,688.59 65.0698,649.9479 C-15.1454011,532.5406 2,0.58 2,0.58 C113.41,3.62 452,0.58 452,0.58 C452,0.58 478.2198,553.9079 478.2198,602.8279 C478.2198,651.7579 451.0398,860.1479 451.0398,860.1479 C451.0398,860.1479 586.9398,1088.4579 577.8798,1110.2079 C568.8198,1131.9479 472.7798,1227.9879 449.2298,1227.9879 Z" id="Fill-3" blush:i="0.4.1.0.1.0.2.0.0"/></g><path d="M254.092047,203.179092 L254.268242,203.187511 C255.921003,203.303901 257.166478,204.738081 257.050089,206.390842 L256.847945,209.514447 C256.778708,210.63601 256.704634,211.881929 256.626638,213.248322 L256.425591,216.885497 C256.174764,221.57077 255.926667,226.772599 255.691775,232.446451 C253.161712,293.560621 253.759407,360.022391 259.674559,422.476525 C266.509348,494.640499 279.805739,552.178245 300.712777,589.557646 L325.383112,633.727823 L353.550621,684.272824 C371.31073,716.171295 389.87809,749.568204 408.554303,783.196963 L451.974464,861.446861 C452.777618,862.896036 452.253915,864.72191 450.804739,865.525064 C449.409237,866.298472 447.664423,865.841487 446.819913,864.51253 L405.503055,790.060996 C386.681974,756.168573 367.943653,722.461184 350.002198,690.233911 L322.974072,641.725888 C313.164473,624.137263 303.971391,607.674946 295.476223,592.486554 C274.067279,554.209804 260.608255,495.968287 253.70129,423.042265 C247.756525,360.275456 247.156557,293.561002 249.69691,232.198269 L249.839989,228.835877 C250.080843,223.327574 250.332946,218.300657 250.585809,213.799577 L250.859423,209.143482 L251.064911,205.969358 C251.177144,204.375624 252.51472,203.160604 254.092047,203.179092 Z" id="Stroke-6" fill="#000" fill-rule="nonzero" blush:i="0.4.1.0.1.0.2.1"/><path d="M288.640408,990.795302 C289.993382,989.949697 291.759781,990.314448 292.672897,991.597236 L292.774398,991.749308 L417.211398,1190.84931 C418.089526,1192.25432 417.662403,1194.10517 416.257392,1194.9833 C414.904418,1195.8289 413.138019,1195.46415 412.224903,1194.18136 L412.123402,1194.02929 L287.686402,994.929292 C286.808274,993.524281 287.235397,991.673431 288.640408,990.795302 Z" id="Stroke-8" fill="#000" fill-rule="nonzero" blush:i="0.4.1.0.1.0.2.2"/><path d="M262.4702,1384.5616 C262.4702,1384.5616 270.4162,1382.9746 270.4162,1389.9216 C270.4162,1396.8676 262.4702,1440.1336 270.1482,1474.5006 C277.8252,1508.8676 322.4302,1553.4726 213.4782,1554.9356 C104.5272,1556.3976 129.7542,1513.9876 142.5502,1497.5346 C155.3462,1481.0816 182.6332,1442.0066 188.8482,1417.8766 C195.0642,1393.7456 191.5422,1373.5926 198.4882,1370.3026 C198.4882,1370.3026 229.9312,1383.8296 262.4702,1384.5616 Z" id="Fill-10" fill="#237978" blush:i="0.4.1.0.1.0.2.3"/><path d="M134.2812,1538.75 C153.4222,1554.646 185.8652,1560.81 238.0972,1554.646 C290.3292,1548.482 291.3032,1528.368 283.1922,1509.226 C283.1922,1509.226 191.6962,1520.231 142.5502,1497.535 C142.5502,1497.535 115.1402,1522.852 134.2812,1538.75 Z" id="Fill-12" fill="#F9C818" blush:i="0.4.1.0.1.0.2.4"/><path d="M519.2728,1221.677 C519.2728,1221.677 513.0068,1224.625 519.6408,1233.47 C526.2748,1242.314 533.6268,1263.323 545.8988,1307.638 C558.1708,1351.952 561.5788,1371.041 564.9878,1428.309 C568.3968,1485.577 562.9418,1565.343 608.6208,1541.481 C654.2978,1517.62 671.3418,1439.899 663.1608,1392.857 C654.9798,1345.816 637.2548,1297.411 652.2528,1238.098 C667.2518,1178.785 678.1598,1141.288 644.0718,1129.698 C609.9838,1118.108 578.2768,1107.984 578.1088,1120.204 C578.1088,1120.204 579.7128,1194.037 519.2728,1221.677 Z" id="Fill-14" fill="#237978" blush:i="0.4.1.0.1.0.2.5"/><path d="M663.9044,1448.8431 C663.9044,1448.8431 650.9974,1549.9531 589.6854,1547.2631 C589.6854,1547.2631 567.0974,1554.2561 566.0214,1468.7421 C566.0214,1468.7421 569.2484,1509.0791 663.9044,1448.8431 Z" id="Fill-16" fill="#F9C818" blush:i="0.4.1.0.1.0.2.6"/><g id="Group-20" transform="translate(614.000000, 1120.000000)" blush:i="0.4.1.0.1.0.2.7"><mask id="lower-bodystandingchill-stance-mask-2" fill="#fff" blush:i="0.4.1.0.1.0.2.7.0"><use xlink:href="#lower-bodystandingchill-stance-path-1" blush:i="0.4.1.0.1.0.2.7.0.0"/></mask><g id="Clip-19" blush:i="0.4.1.0.1.0.2.7.1"/><path d="M2.082,0.286 C2.082,0.286 -11.696,71.32 41.273,107.756 C41.273,107.756 59.644,48.662 51.377,29.067 C43.11,9.472 30.863,8.553 2.082,0.286" id="Fill-18" fill="#F9C818" mask="url(#lower-bodystandingchill-stance-mask-2)" blush:i="0.4.1.0.1.0.2.7.2"/></g></g></g></g></g><g id="Upper Body" transform="translate(376.000000, 277.000000) scale(1 1)" blush:width="1578" blush:height="1152" blush:component="Upper Body" blush:i="0.4.1.1" blush:value="With Laptop" blush:viewBox="299.81999999999994 -3.9452054794520564 1136.16 1033.6438356164383"><defs blush:i="0.4.1.1.0"><polygon id="upper-bodywith-laptop-path-1" points="0.1808 0.1553 298.703924 0.1553 298.703924 343 0.1808 343" blush:i="0.4.1.1.0.0"/><polygon id="upper-bodywith-laptop-path-3" points="0.550418291 0.388 141.311628 0.388 141.311628 92.088834 0.550418291 92.088834" blush:i="0.4.1.1.0.1"/></defs><g id="Upper Body/With Laptop" stroke="none" stroke-width="1" fill="none" fill-rule="evenodd" blush:viewBox="299.81999999999994 -3.9452054794520564 1136.16 1033.6438356164383" blush:i="0.4.1.1.1"><path d="M724.954254,220 C724.954254,220 721.26343,301.153386 673.924004,329.799638 C630.972611,355.790794 721.968632,506.610475 819.857852,497.613536 C873.442212,492.688212 886,346.158072 886,346.158072 C886,346.158072 842.733964,337.796917 858.715877,271.819367 L724.954254,220 Z" id="Neck" fill="#7d4439" blush:color="Skin-500" blush:i="0.4.1.1.1.0"/><path d="M803.337113,302.515641 C739.876612,294.840687 694.077698,253.11575 687.664652,183.898064 C669.216286,186.83496 664.86504,138.764927 670.003065,123.322958 C675.146083,107.858975 691.933027,116.900812 691.933027,116.900812 C692.862251,114.457234 693.652358,111.898916 694.303348,109.225857 C722.02532,-4.48555283 799.669805,0.0243586862 799.669805,0.0243586862 C942.344355,7.45715716 908.914243,153.120195 900.762895,191.763142 C892.610548,230.410091 864.683894,309.927426 803.337113,302.515641 Z" id="Head" fill="#7d4439" blush:color="Skin-500" blush:i="0.4.1.1.1.1"/><g id="Group-25" transform="translate(266.000000, 320.000000)" blush:i="0.4.1.1.1.2"><g id="Group-19" transform="translate(0.000000, 0.612000)" blush:i="0.4.1.1.1.2.0"><path d="M105.050047,289.936251 C33.5168788,376.727653 8.92577071,446.699768 31.2767231,499.852598 C64.8031518,579.581843 146.951413,496.522302 192.490195,395.604271 C222.849383,328.325583 260.283957,276.925705 304.793918,241.404634 L105.050047,289.936251 Z" id="Path" fill="#7d4439" transform="translate(164.044509, 386.561708) rotate(-10.000000) translate(-164.044509, -386.561708)" blush:color="Skin-500" blush:i="0.4.1.1.1.2.0.0"/><g id="Group-3" transform="translate(695.000000, 361.000000)" blush:i="0.4.1.1.1.2.0.1"><mask id="upper-bodywith-laptop-mask-2" fill="#fff" blush:i="0.4.1.1.1.2.0.1.0"><use xlink:href="#upper-bodywith-laptop-path-1" blush:i="0.4.1.1.1.2.0.1.0.0"/></mask><g id="Clip-2" blush:i="0.4.1.1.1.2.0.1.1"/></g><path d="M280.8551,41.1066 C363.7551,15.4706 389.3011,14.0266 389.3011,14.0266 L476.8081,32.8846 C476.8081,32.8846 524.7691,95.9186 528.8791,152.1006 C528.8791,152.1006 530.2491,78.1046 561.7671,27.4036 C561.7671,27.4036 700.4791,26.1286 752.7731,80.7306 C835.3711,166.9736 833.813167,318.3006 833.813167,318.3006 L697.5221,332.3166 L752.7731,255.388 C752.7731,255.388 756.263179,568.804637 748.041179,649.652637 C644,764.422821 270,675.591107 270,675.591107 C270,675.591107 278.1151,416.25183 279.4851,345.3136 C280.8551,274.37537 254.6201,283.9566 218.4531,371.8906 C188.8861,443.7816 94.8851,294.7296 94.8851,294.7296 C94.8851,294.7296 152.5811,80.7726 280.8551,41.1066 Z" id="Fill-4" fill="#1BC0D7" blush:i="0.4.1.1.1.2.0.2"/><path d="M704.0424,431.7121 C704.0424,431.7121 771.3394,407.5801 839.7714,421.8301 C839.7714,421.8301 838.8854,399.4921 839.5874,369.9961 C840.1634,345.7711 853.4304,308.2791 805.5564,312.3171 C749.8404,317.0161 725.9594,317.5081 701.7344,328.4671 C701.7344,328.4671 695.9674,408.6411 704.0424,431.7121" id="Fill-6" fill="#FCEBEC" blush:i="0.4.1.1.1.2.0.3"/><path d="M63.9394,341.7921 L93.2847063,249.4471 C93.2847063,249.4471 201.904517,226.7581 244.9394,320.6421 L212.685338,404.2371 C212.685338,404.2371 152.370466,315.2971 63.9394,341.7921" id="Fill-10" fill="#237978" blush:i="0.4.1.1.1.2.0.4"/><g id="Group-14" transform="translate(338.000000, 0.000000)" blush:i="0.4.1.1.1.2.0.5"><mask id="upper-bodywith-laptop-mask-4" fill="#fff" blush:i="0.4.1.1.1.2.0.5.0"><use xlink:href="#upper-bodywith-laptop-path-3" blush:i="0.4.1.1.1.2.0.5.0.0"/></mask><g id="Clip-13" blush:i="0.4.1.1.1.2.0.5.1"/><path d="M52.6986,0.4875 C52.6986,0.4875 -2.7084,19.2415 0.7016,24.3555 C4.1106,29.4695 102.4766,94.8915 109.8506,91.9955 C117.2246,89.0985 144.8776,36.6905 140.9276,31.4235 C136.9766,26.1565 57.4346,-1.4785 52.6986,0.4875" id="Fill-12" fill="#237978" mask="url(#upper-bodywith-laptop-mask-4)" blush:i="0.4.1.1.1.2.0.5.2"/></g><path d="M650.6088,23.2834 C650.6088,23.2834 698.2988,57.1534 693.5648,61.0734 C688.8308,64.9934 575.8238,99.4234 569.5908,94.5314 C563.3598,89.6394 551.9168,31.4994 557.2118,27.5884 C562.5088,23.6774 646.6358,20.0404 650.6088,23.2834" id="Fill-15" fill="#237978" blush:i="0.4.1.1.1.2.0.6"/><path d="M123.259851,445.031349 C166.893554,466.002349 153.233851,474.731349 174.524851,487.829349 C195.815851,500.928349 228.449851,535.078349 239.694851,527.258349 C250.938851,519.438349 247.765851,512.512349 236.068851,502.885349 C224.372851,493.257349 188.169851,461.709349 192.145851,456.921349 C196.122851,452.133349 257.341851,520.465349 275.349851,508.401349 C293.357851,496.336349 254.631851,465.557349 235.864851,452.620349 C217.098851,439.684349 206.592851,428.138349 212.609851,426.196349 C218.626851,424.255349 289.502851,499.367349 303.228851,487.951349 C316.956851,476.535349 291.560851,450.435349 272.692851,437.256349 C253.825851,424.077349 224.797851,402.906349 224.797851,402.906349 C224.797851,402.906349 262.223851,418.298349 291.053851,445.811349 C319.883851,473.323349 326.829851,471.564349 330.441851,465.221349 C334.053851,458.878349 304.306851,424.060349 304.306851,424.060349 C304.306851,424.060349 305.316851,383.621349 266.957851,370.249349 C228.598851,356.878349 199.545851,336.218349 159.169851,339.440349 C118.793851,342.660349 106.355352,366.565153 106.355352,366.565153 C106.355352,366.565153 79.6261472,424.060349 123.259851,445.031349 Z" id="Fill-8" fill="#7d4439" transform="translate(214.499157, 433.756203) rotate(30.000000) translate(-214.499157, -433.756203)" blush:color="Skin-500" blush:i="0.4.1.1.1.2.0.7"/><path d="M662.9867,209.88 L572.1647,209.88 C568.4677,209.88 565.4707,206.884 565.4707,203.188 L565.4707,195.319 C565.4707,191.624 568.4677,188.627 572.1647,188.627 L662.9867,188.627 C666.6827,188.627 669.6787,191.624 669.6787,195.319 L669.6787,203.188 C669.6787,206.884 666.6827,209.88 662.9867,209.88" id="Fill-17" fill="#237978" blush:i="0.4.1.1.1.2.0.8"/></g><g id="Group-24" transform="translate(397.000000, 175.000000)" blush:i="0.4.1.1.1.2.1"><path d="M185.2874,372.4279 L2.5724,321.7809 C2.5724,321.7809 -8.7866,309.7899 24.6594,306.6349 C58.1044,303.4799 407.5584,294.1429 407.5584,294.1429 L185.2874,372.4279 Z" id="Fill-20" fill="#204EB2" blush:i="0.4.1.1.1.2.1.0"/><path d="M703.3129,371.8791 L190.8269,371.8791 C181.3339,371.8791 173.6369,364.1841 173.6369,354.6901 L220.1609,17.2031 C220.1609,7.7101 227.8559,0.0141 237.3489,0.0141 L749.8349,0.0141 C759.3289,0.0141 767.0249,7.7101 767.0249,17.2031 L720.5009,354.6901 C720.5009,364.1841 712.8059,371.8791 703.3129,371.8791" id="Fill-22" fill="#3267C8" blush:i="0.4.1.1.1.2.1.1"/></g><g id="Group-2" transform="translate(893.239277, 513.555823) scale(-1, 1) rotate(-72.000000) translate(-893.239277, -513.555823) translate(800.239277, 441.555823)" blush:i="0.4.1.1.1.2.2"><path d="M34.8019558,0.721228206 C34.8019558,0.721228206 30.1385768,5.272 25.5025768,10.938 C20.8665768,16.604 24.9875768,17.635 14.6855768,28.452 C4.38357684,39.27 -14.1604232,66.57 18.2905768,108.294 C50.7435768,150.018 61.5605768,146.411 74.9535768,139.2 C88.3455768,131.988 89.8915768,126.838 115.131577,124.262 C140.371577,121.687 164.581577,96.961 164.066577,90.78 L163.551577,84.599 C163.551577,84.599 186.730577,75.842 185.186577,66.055 C183.640577,56.268 176.944577,57.298 176.944577,57.298 C176.944577,57.298 181.580577,52.662 177.974577,44.42 C174.368577,36.179 157.370577,37.724 137.795577,40.3 C118.222577,42.875 67.7415768,53.177 64.6505768,51.117 C61.5605768,49.057 62.5905768,45.966 74.4375768,44.42 C86.2855768,42.875 134.190577,42.36 134.190577,28.967 C134.190577,15.574 119.767577,12.999 91.9515768,13.514 C64.1355768,14.029 58.9845768,12.483 52.2885768,15.06 L39.9277765,16.4968824 C36.5105627,5.9797796 34.8019558,0.721228206 34.8019558,0.721228206 Z" id="Fill-12" fill="#7d4439" blush:color="Skin-500" blush:i="0.4.1.1.1.2.2.0"/><path d="M177.350177,57.2402 C177.350177,57.2402 178.830177,56.1722 167.807177,60.3812 C163.793177,61.9132 158.133177,63.5122 150.159177,65.0242 C120.282177,70.6902 73.4081768,80.9932 58.9851768,83.0532 C44.5611768,85.1142 56.4091768,88.2042 89.3761768,81.5082 C122.343177,74.8112 161.588177,65.8282 163.350177,65.2402 C166.350177,64.2402 175.350177,61.2402 177.350177,57.2402" id="Fill-14" fill="#000" blush:i="0.4.1.1.1.2.2.1"/><path d="M116.349877,99.2405 C103.608877,102.4255 82.3498768,107.2405 80.1038768,107.7785 C76.0968768,108.7395 68.2558768,110.3545 68.2558768,110.3545 C68.2558768,110.3545 68.3498768,113.2405 92.3498768,108.2405 C98.3048768,107.0005 109.349877,105.2405 116.349877,103.2405 C122.788877,101.4005 146.037877,95.4165 149.128877,92.8405 C152.218877,90.2645 152.733877,87.6895 152.733877,87.6895 C152.733877,87.6895 128.349877,96.2405 116.349877,99.2405 Z" id="Fill-16" fill="#000" blush:i="0.4.1.1.1.2.2.2"/></g></g></g></g><g id="Expression" transform="translate(1098.000000, 360.000000) scale(1 1)" fill="#000" blush:width="202" blush:height="224" blush:component="Expression" blush:i="0.4.1.2" blush:value="Wink" blush:viewBox="24.298226164079836 40.31999999999999 164.60088691796008 183.67999999999998"><g id="Expression/Wink" stroke="none" stroke-width="1" fill="none" fill-rule="evenodd" blush:viewBox="24.298226164079836 40.31999999999999 164.60088691796008 183.67999999999998" blush:i="0.4.1.2.0"><g id="Group-16" transform="translate(25.000000, 40.000000)" fill="#000" blush:i="0.4.1.2.0.0"><path d="M40.1189,111.5775 C40.1189,111.5775 56.2689,136.5775 78.2119,122.1175 L40.1189,111.5775 Z" id="Fill-1" blush:i="0.4.1.2.0.0.0"/><path d="M127.7476,47.3187 C127.7476,50.6317 125.0616,53.3187 121.7476,53.3187 C118.4336,53.3187 115.7476,50.6317 115.7476,47.3187 C115.7476,44.0057 118.4336,41.3187 121.7476,41.3187 C125.0616,41.3187 127.7476,44.0057 127.7476,47.3187" id="Fill-5" blush:i="0.4.1.2.0.0.1"/><g id="Group-9" transform="translate(0.000000, 0.515000)" blush:i="0.4.1.2.0.0.2"><path d="M0,11.9756 C0,11.9756 15.26,2.7656 26.897,0.6706 C34.082,-0.6224 73.756,4.9766 72.492,13.0666 C71.26,20.9486 67.346,19.8876 51.686,17.1966 C36.026,14.5046 28.873,12.7096 19.82,13.6886 C10.766,14.6666 0.245,16.6246 0,11.9756" id="Fill-7" blush:i="0.4.1.2.0.0.2.0"/></g><path d="M163.0676,27.7464 C163.0676,27.7464 160.4526,19.7454 156.1496,15.9004 C151.8466,12.0574 119.4626,3.7574 113.9856,8.8904 C105.2836,17.0464 111.5366,19.9694 129.0056,21.7814 C143.0546,23.2394 148.6046,23.7254 155.1156,26.5534 C164.0116,30.4174 162.8706,29.2364 163.0676,27.7464" id="Fill-10" blush:i="0.4.1.2.0.0.3"/></g><g id="Group-124" transform="translate(25.000000, 52.000000)" fill="#000" fill-rule="nonzero" blush:i="0.4.1.2.0.1"><path d="M98.9388073,0.515726772 L102.747593,1.73767323 L102.375135,2.93095324 C102.075892,3.9043293 101.742122,5.01790967 101.382468,6.25291663 C100.354215,9.78380887 99.3257634,13.5761133 98.3662837,17.478955 C97.2996742,21.8175645 96.3854385,26.0250163 95.6702376,29.9976992 L95.4631649,31.1740325 C93.7257688,41.2776329 93.4803733,48.9926374 95.0328764,53.1417647 L95.1244408,53.3771728 C104.002358,75.340079 91.9464166,86.4779502 66.6424816,78.6786942 L65.8716485,78.4365483 L67.0907515,74.6268517 C89.8846425,81.9208968 99.0260452,73.7026714 91.4159925,54.8763096 C89.3210345,49.6942966 89.6433125,40.8993486 91.7335247,29.288974 C92.4647551,25.2272527 93.3964651,20.9393815 94.4819426,16.5240234 C95.3476055,13.0027971 96.2678852,9.57278889 97.1943734,6.33814281 L97.5420029,5.13451153 C97.7507758,4.41761123 97.9510908,3.74056192 98.1413397,3.10683734 L98.6297394,1.50244969 L98.9388073,0.515726772 Z" id="Stroke-114" blush:i="0.4.1.2.0.1.0"/><path d="M0.1850015,153.534088 L2.1419985,150.045512 L2.85620174,150.434727 L3.51128674,150.782909 C4.50308988,151.305335 5.6321651,151.880908 6.88714027,152.498006 L7.43266178,152.764985 C11.6537624,154.821142 16.3218862,156.878362 21.3004212,158.797989 C32.7483158,163.212076 44.0600582,166.224884 54.584272,167.202241 C59.3535856,167.645156 63.8735301,167.656119 68.1063644,167.201856 L68.9490919,167.10479 L69.4379081,171.07481 C64.6629697,171.662733 59.5745075,171.682884 54.2143935,171.185103 C43.2765951,170.169337 31.6251616,167.066055 19.8613669,162.530163 C14.7706849,160.567294 9.99959664,158.464698 5.68097489,156.361037 L4.04785364,155.55429 C3.35348222,155.206284 2.70158001,154.872883 2.09423579,154.556252 L0.962732129,153.958187 L0.1850015,153.534088 Z" id="Stroke-122" blush:i="0.4.1.2.0.1.1"/></g><path d="M78.6362,79.1289 C77.9112,79.1289 77.1852,78.8679 76.6092,78.3389 C76.5712,78.3049 71.6242,73.9129 64.4832,74.1789 C57.0942,74.4519 52.1892,78.0669 52.1402,78.1029 C50.8182,79.0929 48.9392,78.8329 47.9442,77.5169 C46.9472,76.1999 47.1962,74.3309 48.5082,73.3279 C48.7642,73.1319 54.8862,68.5299 64.2612,68.1829 C73.9102,67.8359 80.3942,73.6699 80.6652,73.9189 C81.8862,75.0389 81.9682,76.9369 80.8472,78.1569 C80.2562,78.8019 79.4472,79.1289 78.6362,79.1289" id="Fill-12" fill="#000" blush:i="0.4.1.2.0.2"/></g></g><g id="Hairstyle" transform="translate(607.000000, 33.000000) scale(1 1)" blush:width="826" blush:height="747" blush:component="Hairstyle" blush:i="0.4.1.3" blush:value="Double Bun" blush:viewBox="413 179.31305309734512 297.36 342.9258849557522"><g id="Hairstyle/Double Bun" stroke="none" stroke-width="1" fill="none" fill-rule="evenodd" blush:viewBox="413 179.31305309734512 297.36 342.9258849557522" blush:i="0.4.1.3.0"><g id="Group-13" transform="translate(413.000000, 182.000000)" blush:i="0.4.1.3.0.0"><path d="M185.4792,97.481 C185.4792,97.481 100.3482,99.373 75.7552,165.585 C51.1622,231.798 73.1162,253.966 54.1612,294.684 C35.2072,335.401 0.1062,338.911 0.1062,338.911 C0.1062,338.911 47.8432,309.426 48.5452,273.624 C49.2472,237.82 46.8652,183.377 47.3542,181.464 C47.8432,179.552 28.9122,174.451 25.3902,187.883 C25.3902,187.883 14.2412,108.021 57.1422,61.883 C118.1362,-3.715 273.0272,24.528 267.5532,143.585 C263.6322,228.863 270.8322,258.974 270.8322,258.974 C270.8322,258.974 264.7822,224.521 261.8492,191.767 C258.9162,159.013 251.6222,116.46 198.0442,98.473 C198.0442,98.473 176.2302,78.573 169.7242,77.042 C163.2182,75.511 187.8392,89.217 185.4792,97.481" id="Fill-1" fill="#000" blush:i="0.4.1.3.0.0.0"/><path d="M185.4792,97.481 C185.4792,97.481 100.3482,99.373 75.7552,165.585 C51.1622,231.798 73.1162,253.966 54.1612,294.684 C35.2072,335.401 0.1062,338.911 0.1062,338.911 C0.1062,338.911 47.8432,309.426 48.5452,273.624 C49.2472,237.82 46.8652,183.377 47.3542,181.464 C47.8432,179.552 28.9122,174.451 25.3902,187.883 C25.3902,187.883 14.2412,108.021 57.1422,61.883 C118.1362,-3.715 273.0272,24.528 267.5532,143.585 C263.6322,228.863 270.8322,258.974 270.8322,258.974 C270.8322,258.974 264.7822,224.521 261.8492,191.767 C258.9162,159.013 251.6222,116.46 198.0442,98.473 C198.0442,98.473 176.2302,78.573 169.7242,77.042 C163.2182,75.511 187.8392,89.217 185.4792,97.481 Z" id="Stroke-3" fill="#711515" blush:color="Hair-500" blush:i="0.4.1.3.0.0.1"/><path d="M100.244394,84.06 C100.244394,84.06 62.7173936,106.576 34.1973936,70.55 C5.67739356,34.525 49.2083936,1.42108547e-14 86.7343936,1.42108547e-14 C124.261394,1.42108547e-14 137.771394,22.516 134.768394,46.534 C131.766394,70.55 116.756394,78.056 100.244394,84.06 Z" id="Stroke-7" fill="#711515" blush:color="Hair-500" blush:i="0.4.1.3.0.0.2"/><path d="M249.634659,6.11821636 C249.634659,6.11821636 291.853659,13.0142164 294.121659,56.4672164 C296.387659,99.9192164 242.696659,97.9632164 213.112659,74.8762164 C183.528659,51.7882164 185.513659,27.2862164 201.358659,11.8622164 C217.202659,-3.56078364 233.248659,0.277216362 249.634659,6.11821636 Z" id="Stroke-11" fill="#711515" blush:color="Hair-500" blush:i="0.4.1.3.0.0.3"/></g></g></g><g id="Accessories" transform="translate(1051.000000, 393.000000) scale(1 1)" fill="#000" blush:width="234" blush:height="78" blush:component="Accessories" blush:i="0.4.1.4" blush:value="Glasses" blush:viewBox="16.379999999999995 -3.619760479041915 222.29999999999993 86.40718562874252"><g id="Accessories/Glasses" stroke="none" stroke-width="1" fill="none" fill-rule="evenodd" blush:viewBox="16.379999999999995 -3.619760479041915 222.29999999999993 86.40718562874252" blush:i="0.4.1.4.0"><g id="Group-136" transform="translate(21.000000, 0.000000)" fill="#000" fill-rule="nonzero" blush:i="0.4.1.4.0.0"><path d="M85.2331,-3.5185 C64.1379939,-3.5185 47.0361,13.5830433 47.0361,34.6775 C47.0361,55.7726319 64.1376692,72.8735 85.2331,72.8735 C106.328381,72.8735 123.4291,55.7727814 123.4291,34.6775 C123.4291,13.5828939 106.328057,-3.5185 85.2331,-3.5185 Z M85.2331,5.4815 C101.357453,5.4815 114.4291,18.5534154 114.4291,34.6775 C114.4291,50.8022186 101.357819,63.8735 85.2331,63.8735 C69.1081493,63.8735 56.0361,50.8019866 56.0361,34.6775 C56.0361,18.5536474 69.1085154,5.4815 85.2331,5.4815 Z" id="Stroke-128" blush:i="0.4.1.4.0.0.0"/><path d="M179.1536,5.5889 C158.058169,5.5889 140.9566,22.6897681 140.9566,43.7849 C140.9566,64.8800319 158.058169,81.9809 179.1536,81.9809 C200.248881,81.9809 217.3496,64.8801814 217.3496,43.7849 C217.3496,22.6896186 200.248881,5.5889 179.1536,5.5889 Z M179.1536,14.5889 C195.278319,14.5889 208.3496,27.6601814 208.3496,43.7849 C208.3496,59.9096186 195.278319,72.9809 179.1536,72.9809 C163.028649,72.9809 149.9566,59.9093866 149.9566,43.7849 C149.9566,27.6604134 163.028649,14.5889 179.1536,14.5889 Z" id="Stroke-130" blush:i="0.4.1.4.0.0.1"/><path d="M-3.64184511,7.30994196 C-2.74598214,5.07028454 -0.252551778,3.94709164 2.00319591,4.726899 L2.20755804,4.80305489 L52.207558,24.8030549 C54.5150839,25.7260652 55.6374554,28.3449322 54.7144451,30.652458 C53.8185821,32.8921155 51.3251518,34.0153084 49.0694041,33.235501 L48.865042,33.1593451 L-1.13495804,13.1593451 C-3.44248387,12.2363348 -4.56485544,9.61746778 -3.64184511,7.30994196 Z" id="Stroke-132" blush:i="0.4.1.4.0.0.2"/><path d="M114.843511,36.5654718 C115.110544,34.1660118 117.218034,32.4181733 119.60255,32.5722482 L119.813628,32.5908106 L146.033628,35.5088106 C148.503661,35.7836983 150.283177,38.0088957 150.008289,40.4789282 C149.741256,42.8783882 147.633766,44.6262267 145.24925,44.4721518 L145.038172,44.4535894 L118.818172,41.5355894 C116.348139,41.2607017 114.568623,39.0355043 114.843511,36.5654718 Z" id="Stroke-134" blush:i="0.4.1.4.0.0.3"/></g></g></g><g id="Facial Hair" transform="translate(1061.000000, 394.000000) scale(1 1)" blush:width="212" blush:height="211" blush:component="Facial Hair" blush:i="0.4.1.5" blush:value="None" blush:viewBox="371 369.25 0 0"><g id="Facial Hair/None" stroke="none" stroke-width="1" fill="none" fill-rule="evenodd" fill-opacity="0" blush:viewBox="371 369.25 0 0" blush:i="0.4.1.5.0"/></g></g></g></g></svg>